<svg width="158" height="50" viewBox="0 0 158 50" fill="none" xmlns="http://www.w3.org/2000/svg">
<path d="M48.4059 12.998C44.4359 12.998 41.8129 14.5211 41.0239 15.2271C39.9579 16.1771 39.7899 17.4771 40.2589 18.4191C40.7549 19.4141 42.088 19.7321 43.209 19.3141C50.437 16.6091 51.864 19.6641 51.864 21.5781V24.1631C51.864 24.1631 49.1709 22.6551 46.4039 22.6551C43.2279 22.6551 37.7529 24.2961 37.7529 30.0661C37.7529 35.7621 41.8779 37.6341 45.4689 37.6341C48.3889 37.6341 50.6359 36.3051 52.0719 34.8531C52.0719 35.7591 52.9069 37.4441 54.6929 37.4441C56.4429 37.4441 57.42 36.2381 57.42 35.0521V22.7771C57.419 14.0521 52.0649 12.998 48.4059 12.998ZM51.864 30.4071C47.809 34.5971 43.0719 32.9871 43.0719 29.6941C43.0719 27.0321 46.411 25.3771 51.864 27.9711V30.4071Z" fill="#223080"/>
<path d="M69.7909 28.3549C69.7909 30.1369 69.5819 33.2609 73.3489 32.1199C74.5919 31.7449 75.9159 32.4759 76.3069 33.5239C76.7469 34.6999 76.3909 36.136 74.8239 36.778C71.4979 38.14 68.1719 38.042 66.2109 36.778C63.7409 35.184 64.0069 32.1879 64.0069 26.7999V4.11395C64.0069 2.86895 64.9799 1.69995 66.8419 1.69995C68.7039 1.69995 69.7909 2.86895 69.7909 4.11395V28.3549Z" fill="#223080"/>
<path d="M115.975 21.821C115.475 12.767 109.932 13.004 107.704 13.004C103.681 13.004 100.986 15.936 100.187 16.909C98.935 14.427 96.824 13.076 92.654 13.076C89.168 13.076 87.263 14.609 85.666 16.028V15.827C85.666 14.583 84.701 13.562 82.738 13.562C80.778 13.562 79.79 14.762 79.79 16.007V34.964C79.79 36.209 80.844 37.309 82.749 37.309C84.656 37.309 85.666 36.209 85.666 34.964V21.371C86.988 19.845 88.624 18.595 90.975 18.595C94.234 18.595 94.895 21.346 94.895 23.573V34.965C94.895 36.21 96.188 37.31 97.87 37.31C99.558 37.31 100.823 36.21 100.823 34.965V21.372C102.384 19.361 103.893 18.657 105.999 18.657C109.969 18.657 110.024 22.632 110.024 25.226V34.964C110.024 36.209 111.485 37.309 113.126 37.309C114.771 37.309 116.011 36.209 116.011 34.964V22.21C116.01 22.078 115.998 21.95 115.975 21.821Z" fill="#223080"/>
<path d="M130.082 37.5739C130.082 37.5739 122.988 22.7159 120.852 17.7539C120.477 16.8829 119.883 14.0759 122.381 13.3969C124.71 12.7659 126.34 13.9629 127.074 15.9479C128.006 18.4689 132.922 30.0509 132.922 30.0509C132.922 30.0509 136.816 17.4369 137.306 15.9909C137.869 14.3279 139.379 13.2289 141.461 13.5529C143.545 13.8729 143.965 15.6579 143.369 17.2879C142.65 19.2339 134.912 38.8399 134.246 40.4819C133.057 43.3959 130.83 47.9449 126.734 47.9449C125.597 47.9449 124.59 47.8819 123.666 47.5769C121.924 47.0029 121.045 45.3449 121.949 43.7559C122.791 42.2759 124.974 42.9209 125.666 42.8239C126.623 42.6869 127.538 42.0589 128.314 40.8679C129.286 39.3739 130.082 37.5739 130.082 37.5739Z" fill="#223080"/>
<path d="M25.2049 37.801C18.3689 37.801 12.8059 32.239 12.8059 25.402C12.8059 18.565 18.3689 13.001 25.2049 13.001C27.5339 13.001 29.8089 13.662 31.7979 14.911C33.1759 15.777 33.5899 17.599 32.7219 18.977C31.8559 20.351 30.0359 20.768 28.6589 19.9C27.6129 19.243 26.4219 18.896 25.2049 18.896C21.6189 18.896 18.7009 21.815 18.7009 25.402C18.7009 28.988 21.6189 31.906 25.2049 31.906C26.4219 31.906 27.6129 31.559 28.6589 30.901C30.0359 30.035 31.8559 30.449 32.7219 31.824C33.5899 33.204 33.1759 35.023 31.7979 35.89C29.8129 37.139 27.5329 37.801 25.2049 37.801Z" fill="#223080"/>
<path d="M24.3909 48.2989C11.7659 48.2989 1.4939 38.0289 1.4939 25.4019C1.4939 12.7749 11.7659 2.50391 24.3909 2.50391C28.6939 2.50391 32.9019 3.7239 36.5609 6.0289C37.9369 6.8979 38.3479 8.71792 37.4809 10.0959C36.6139 11.4729 34.7929 11.8839 33.4149 11.0169C30.6979 9.30391 27.5789 8.3989 24.3909 8.3989C15.0149 8.3989 7.3909 16.0259 7.3909 25.4019C7.3909 34.7779 15.0149 42.4039 24.3909 42.4039C27.5789 42.4039 30.6979 41.4979 33.4149 39.7849C34.7929 38.9169 36.6119 39.3279 37.4809 40.7069C38.3479 42.0819 37.9379 43.9029 36.5609 44.7699C32.9019 47.0789 28.6929 48.2989 24.3909 48.2989Z" fill="#D0007E"/>
<path d="M150.959 8.44702C153.859 8.44702 156.209 10.797 156.209 13.697C156.209 16.597 153.859 18.947 150.959 18.947C148.059 18.947 145.709 16.597 145.709 13.697C145.709 10.797 148.059 8.44702 150.959 8.44702ZM150.959 9.59302C148.695 9.59302 146.928 11.348 146.928 13.697C146.928 16.046 148.696 17.801 150.959 17.801C153.222 17.801 154.99 16.047 154.99 13.697C154.99 11.347 153.222 9.59302 150.959 9.59302ZM150.336 14.306V15.605C150.336 15.91 150.32 16.011 150.248 16.149C150.153 16.331 149.965 16.432 149.727 16.432C149.487 16.432 149.305 16.33 149.211 16.149C149.139 16.011 149.124 15.91 149.124 15.605V11.762C149.124 11.587 149.124 11.363 149.298 11.188C149.473 11.014 149.697 11.014 149.879 11.014H151.307C152.409 11.014 153.09 11.798 153.09 12.697C153.09 13.452 152.641 13.916 152.134 14.118L152.86 15.358C152.997 15.605 153.033 15.707 153.048 15.851C153.064 16.018 152.976 16.2 152.744 16.337C152.62 16.409 152.532 16.432 152.431 16.432C152.157 16.432 152.018 16.243 151.844 15.939L150.901 14.306H150.336ZM150.336 12.029V13.371H151.154C151.574 13.371 151.88 13.124 151.88 12.696C151.88 12.268 151.574 12.029 151.154 12.029H150.336Z" fill="#223080"/>
</svg>
